<?xml version="1.0" encoding="utf-8"?>
<!-- Generator: Adobe Illustrator 27.9.0, SVG Export Plug-In . SVG Version: 6.00 Build 0)  -->
<svg version="1.1" id="Ebene_1" xmlns="http://www.w3.org/2000/svg" xmlns:xlink="http://www.w3.org/1999/xlink" x="0px" y="0px"
	 viewBox="0 0 29.3 30" style="enable-background:new 0 0 29.3 30;" xml:space="preserve">
<style type="text/css">
	.st0{fill:#FFFFFF;}
	.st1{fill:none;}
	.st2{fill:#D60B52;}
</style>
<g>
	<path d="M3.32,21.01v-8.24H2.47c-0.28,0-0.5-0.08-0.67-0.24c-0.17-0.16-0.26-0.36-0.26-0.6c0-0.26,0.09-0.48,0.26-0.64
		c0.17-0.16,0.4-0.24,0.67-0.24h0.85v-0.34c0-0.94,0.19-1.76,0.57-2.47C4.27,7.55,4.79,7,5.48,6.61c0.68-0.39,1.46-0.59,2.33-0.59
		c0.29,0,0.53,0.09,0.72,0.26c0.19,0.17,0.29,0.39,0.29,0.65s-0.1,0.48-0.29,0.65C8.34,7.76,8.1,7.85,7.81,7.85
		c-0.74,0-1.34,0.24-1.79,0.73c-0.45,0.49-0.67,1.14-0.67,1.94v0.54h5.03c0.28,0,0.5,0.08,0.67,0.24c0.17,0.16,0.26,0.37,0.26,0.64
		c0,0.08-0.02,0.16-0.05,0.23c0,0.01,0,0.02,0.01,0.02c0.33-0.34,0.73-0.61,1.2-0.8c0.46-0.19,0.97-0.29,1.51-0.29
		c0.66,0,1.25,0.13,1.77,0.4c0.52,0.27,0.95,0.65,1.28,1.15c0.39-0.49,0.87-0.87,1.45-1.14c0.58-0.28,1.22-0.41,1.93-0.41
		c1.12,0,2.02,0.37,2.71,1.12c0.69,0.75,1.03,1.8,1.03,3.14v5.64c0,0.01-0.01,0.02-0.01,0.04c0.87-0.9,1.59-1.92,2.14-3.07
		c0.76-1.58,1.14-3.29,1.14-5.13c0-2.28-0.57-4.35-1.71-6.2C24.57,4.8,23,3.34,20.99,2.28c-2.01-1.06-4.25-1.59-6.72-1.59
		S9.56,1.26,7.55,2.4C5.54,3.54,3.96,5.11,2.81,7.12c-1.16,2.01-1.73,4.23-1.73,6.67c0,2.43,0.58,4.64,1.73,6.62
		c0.17,0.29,0.37,0.56,0.56,0.83C3.35,21.17,3.32,21.1,3.32,21.01z"/>
	<path d="M24.88,22.01h-1.66c-0.02,0-0.04,0.01-0.06,0.01c-0.28,0-0.52-0.1-0.7-0.29c-0.19-0.19-0.28-0.43-0.28-0.72v-5.64
		c0-0.8-0.2-1.41-0.59-1.82c-0.39-0.41-0.92-0.62-1.57-0.62c-0.67,0-1.22,0.24-1.65,0.71c-0.43,0.47-0.65,1.08-0.65,1.82v5.56
		c0,0.29-0.09,0.53-0.27,0.72c-0.18,0.19-0.42,0.29-0.71,0.29c-0.28,0-0.52-0.1-0.7-0.29c-0.19-0.19-0.28-0.43-0.28-0.72v-5.64
		c0-0.8-0.2-1.41-0.59-1.82c-0.39-0.41-0.92-0.62-1.57-0.62c-0.68,0-1.24,0.24-1.67,0.71c-0.43,0.47-0.65,1.08-0.65,1.82v5.56
		c0,0.29-0.09,0.53-0.27,0.72c-0.18,0.19-0.42,0.29-0.72,0.29c-0.28,0-0.52-0.1-0.7-0.29c-0.19-0.19-0.28-0.43-0.28-0.72v-8.24H5.35
		v8.24c0,0.3-0.09,0.55-0.28,0.73c-0.18,0.19-0.44,0.28-0.77,0.28c-0.19,0-0.35-0.06-0.51-0.16c1.02,1.31,2.27,2.39,3.76,3.25
		c2.01,1.16,4.25,1.73,6.72,1.73h10.61c0.73,0,1.31-0.22,1.76-0.66c0.44-0.44,0.66-1.03,0.66-1.76c0-0.7-0.22-1.27-0.66-1.73
		C26.19,22.24,25.61,22.01,24.88,22.01z"/>
</g>
</svg>
